<svg width="827" height="837" viewBox="0 0 827 837" fill="none" xmlns="http://www.w3.org/2000/svg">
<path fill-rule="evenodd" clip-rule="evenodd" d="M91.3225 1.62115C89.8305 7.05215 89.5146 21.9462 90.6656 32.4992C93.7716 60.9712 103.914 87.3032 122.476 115.088L129.977 126.315L120.524 138.088C104.882 157.568 96.9615 169.908 85.7835 192.211C59.1355 245.379 25.8885 338.769 11.6815 400.36C-6.84552 480.681 -3.47951 530.904 22.8165 566.484C40.8365 590.866 68.4715 606.222 100.307 609.54C127.408 612.365 152.927 605.803 176.647 589.91C194.632 577.859 208.817 563.779 237.147 529.86C265.248 496.215 274.504 489.929 295.71 490.091C307.028 490.178 316.156 492.618 336.628 501.029C398.785 526.568 426.997 526.441 492.21 500.327C501.56 496.583 512.134 492.747 515.709 491.803C524.446 489.497 538.479 489.472 546.209 491.75C559.496 495.664 565.323 500.787 588.984 529.36C618.953 565.55 642.676 587.301 663.709 597.873C707.643 619.958 760.917 611.658 793.876 577.595C825.829 544.571 833.85 498.096 820.131 425.47C809.97 371.676 788.396 302.264 761.664 237.36C741.781 189.083 729.675 166.982 707.877 139.157C702.835 132.721 698.709 126.995 698.709 126.433C698.709 125.871 701.922 120.562 705.85 114.635C714.179 102.066 725.249 79.7732 729.653 66.6982C735.499 49.3402 737.049 39.6992 737.133 20.1612C737.187 7.65816 736.857 2.11118 736.011 1.26318C735.08 0.332182 732.072 1.85216 722.511 8.08716C686.003 31.8952 610.893 76.3602 607.184 76.3602C606.739 76.3602 601.612 73.9292 595.792 70.9582C557.334 51.3272 511.377 37.9322 464.515 32.6942C442.941 30.2832 387.442 30.2702 365.71 32.6712C317.081 38.0432 273.187 50.5702 233.789 70.3202C227.162 73.6422 221.234 76.3602 220.614 76.3602C216.701 76.3602 118.185 17.7952 98.7095 3.89117C92.1355 -0.802827 91.9995 -0.844847 91.3225 1.62115ZM281.19 116.036C328.458 141.795 344.667 152.5 362.497 169.735C373.687 180.552 381.676 190.242 390.588 203.811C398.107 215.26 407.311 232.965 410.794 242.675C412.112 246.352 413.45 249.36 413.767 249.36C414.084 249.36 415.107 246.94 416.039 243.983C418.343 236.672 427.35 218.513 433.751 208.271C441.812 195.372 449.273 185.806 459.698 175.003C479.722 154.253 497.648 142.269 554.078 111.91L573.945 101.221L583.078 102.363C608.036 105.483 636.059 115.853 656.709 129.608C695.252 155.283 721.577 194.822 731.857 242.48C734.918 256.669 735.21 291.929 732.382 305.86C725.543 339.55 709.117 370.731 685.308 395.218C660.721 420.506 629.432 437.693 595.438 444.584C585.786 446.54 581.26 446.852 563.209 446.8C545.377 446.749 540.625 446.401 531.709 444.493C509.633 439.77 488.676 430.863 467.815 417.338C462.649 413.988 458.073 411.61 457.645 412.054C457.218 412.497 454.288 417.36 451.135 422.86C440.609 441.219 430.989 454.658 419.017 467.728L413.824 473.396L409.383 468.628C395.542 453.763 382.997 435.705 373.59 417.11C371.99 413.947 370.534 411.36 370.354 411.36C370.174 411.36 366.243 413.863 361.619 416.922C350.414 424.333 327.417 435.611 315.965 439.311C297.547 445.261 286.462 446.837 263.21 446.809C245.184 446.787 240.723 446.462 231.71 444.512C158.725 428.721 103.772 369.648 94.2095 296.698C89.8165 263.192 94.8915 231.958 109.85 200.426C134.863 147.699 183.592 111.489 241.147 102.863C246.131 102.116 251.55 101.707 253.19 101.954C254.829 102.2 267.429 108.538 281.19 116.036ZM249.996 153.393C199.349 159.752 158.615 196.421 146.726 246.36C143.595 259.516 142.887 280.425 145.135 293.36C149.755 319.948 160.581 341.076 179.21 359.86C202.369 383.213 231.373 395.369 263.902 395.356C294.758 395.344 322.471 384.403 345.046 363.319C380.889 329.846 392.855 275.403 374.623 228.76C365.025 204.208 345.939 181.98 322.784 168.389C302.933 156.738 272.801 150.53 249.996 153.393ZM549.913 153.466C503.161 159.763 464.496 191.718 450.215 235.86C445.683 249.867 444.436 259.998 444.984 278.36C445.386 291.824 445.945 296.608 448.027 304.36C453.915 326.281 463.783 343.663 479.476 359.755C534.064 415.734 626.234 404.145 666.753 336.209C684.147 307.046 688.527 268.561 678.089 236.585C664.197 194.029 630.555 164.051 586.469 154.945C576.792 152.947 559.087 152.23 549.913 153.466ZM575.951 190.57C584.809 194.361 591.66 204.628 592.01 214.637C592.586 231.116 580.179 244.61 564.451 244.61C540.037 244.61 526.87 216.091 542.885 197.898C551.633 187.959 563.637 185.299 575.951 190.57ZM319.127 218.278L329.007 228.195L325.927 232.028C324.231 234.135 314.281 244.389 303.814 254.814L284.783 273.768L306.246 295.488C318.051 307.435 327.71 317.876 327.71 318.692C327.71 319.508 323.465 324.604 318.277 330.017L308.846 339.86L286.277 317.368L263.71 294.877L241.23 317.34L218.748 339.804L214.643 335.832C212.385 333.647 207.8 328.789 204.455 325.036L198.373 318.213L220.741 295.829L243.107 273.445L220.694 250.889L198.281 228.333L208.145 218.847C213.571 213.629 218.509 209.36 219.119 209.36C219.729 209.36 229.67 218.81 241.21 230.36C252.75 241.91 262.671 251.36 263.256 251.36C263.841 251.36 274.133 241.685 286.128 229.86C298.123 218.035 308.233 208.36 308.593 208.36C308.953 208.36 313.693 212.823 319.127 218.278ZM632.547 247.969C642.726 252.124 649.709 262.863 649.709 274.36C649.709 279.81 649.146 282.168 646.651 287.16C641.467 297.534 633.062 302.764 621.709 302.68C605.941 302.563 593.742 290.149 593.719 274.197C593.69 254.292 614.161 240.463 632.547 247.969ZM518.247 248.726C528.817 253.648 535.41 265.048 534.469 276.777C533.837 284.641 531.101 289.923 524.662 295.713C516.644 302.921 508.079 304.847 497.722 301.771C490.206 299.539 481.53 290.863 479.298 283.347C476.201 272.918 478.107 263.599 484.917 255.862C490.71 249.281 497.225 246.38 506.21 246.38C511.456 246.38 514.472 246.967 518.247 248.726ZM575.951 306.57C593.75 314.188 597.855 340.367 583.26 353.181C577.81 357.966 573.857 359.616 566.601 360.136C557.122 360.814 550.682 358.464 544.167 351.949C532.354 340.136 532.857 322.824 545.343 311.413C548.383 308.634 551.172 306.34 551.541 306.316C551.909 306.292 554.459 305.63 557.209 304.845C563.129 303.156 569.304 303.724 575.951 306.57ZM403.71 355.5C391.167 368.675 385.457 375.572 382.318 381.339L379.734 386.086L384.654 396.148C393.959 415.176 411.932 445.331 413.98 445.352C415.792 445.371 430.231 420.788 441.923 397.781L448.063 385.702L444.23 379.393C441.159 374.337 415.846 346.352 413.747 345.691C413.451 345.598 408.935 350.012 403.71 355.5ZM28.2095 683.221C24.2105 685.691 22.1005 688.181 20.2475 692.614C18.9145 695.806 18.7095 705.447 18.7095 765.128C18.7095 817.331 18.9995 834.25 19.9095 835.16C21.4275 836.678 46.9835 836.819 49.7755 835.325C51.6545 834.319 51.7095 832.587 51.7095 774.384C51.7095 731.641 52.0265 714.282 52.8175 713.793C53.4265 713.417 55.3855 714.628 57.1715 716.484C58.9565 718.341 77.6585 743.035 98.7295 771.36C119.802 799.685 138.655 824.586 140.626 826.696C142.597 828.806 146.46 831.713 149.21 833.156C153.859 835.594 155.299 835.804 169.71 836.148C180.83 836.413 186.312 836.142 189.112 835.189C194.684 833.292 198.534 828.072 199.725 820.799C201.025 812.86 201.034 687.343 199.735 683.925L198.76 681.36H183.856C172.648 681.36 168.679 681.691 167.846 682.695C167.07 683.63 166.66 701.58 166.474 742.612C166.329 774.833 165.874 801.529 165.465 801.938C165.056 802.347 163.755 801.821 162.574 800.771C159.357 797.909 115.032 738.843 93.2255 708.36C82.3215 693.118 75.4915 685.663 70.2095 683.239C66.8195 681.684 63.5405 681.401 48.7095 681.386C33.3975 681.37 30.8345 681.599 28.2095 683.221ZM269.71 682.876C256.058 685.666 248.772 689.429 240.892 697.761C234.802 704.2 231.33 711.127 228.977 721.532C226.636 731.888 226.68 786.063 229.039 797.641C232.859 816.391 244.517 828.246 264.71 833.917C270.577 835.565 276.768 835.778 328.329 836.11C380.106 836.444 385.601 836.326 387.079 834.848C388.415 833.511 388.71 830.922 388.71 820.489C388.71 811.922 388.318 807.368 387.51 806.56C386.607 805.657 373.395 805.36 334.192 805.36C276.701 805.36 275.017 805.203 268.206 799.223C263.853 795.401 261.71 788.622 261.71 778.678V771.36L321.96 771.345C358.124 771.335 382.81 770.951 383.71 770.382C386.024 768.922 386.479 750.182 384.282 746.829L382.663 744.36H321.687H260.71V741.044C260.71 734.899 262.847 725.889 265.314 721.637C266.819 719.04 269.582 716.343 272.486 714.637L277.21 711.86L331.147 711.577C368.179 711.382 385.496 710.952 386.397 710.204C388.168 708.734 388.268 684.318 386.51 682.56C384.706 680.756 278.684 681.042 269.71 682.876ZM406.89 683.365C407.066 684.467 421.835 701.178 439.71 720.499C457.585 739.821 472.21 756.228 472.21 756.96C472.21 757.692 456.46 774.781 437.21 794.934C417.96 815.088 401.848 832.207 401.406 832.977C399.683 835.975 401.985 836.36 421.638 836.36H441.45L465.93 810.11C479.395 795.673 496.103 777.793 503.06 770.378C510.017 762.963 515.709 756.546 515.709 756.117C515.709 755.425 497.753 735.958 458.974 694.61L446.548 681.36H426.559C407.116 681.36 406.58 681.415 406.89 683.365ZM528.037 701.893C517.132 713.186 508.057 722.867 507.871 723.406C507.512 724.448 526.423 745.36 527.724 745.36C528.551 745.36 583.679 687.011 585.013 684.723C586.732 681.775 584.413 681.36 566.229 681.36H547.865L528.037 701.893ZM683.987 683.909C675.934 687.922 679.379 682.145 634.234 767.358C608.404 816.114 599.775 833.241 600.479 834.358C601.24 835.566 604.437 835.916 616.818 836.146C625.283 836.304 633.199 836.188 634.409 835.89C636.062 835.482 638.545 831.501 644.409 819.857L652.209 804.368L702.885 804.364L753.562 804.36L761.177 818.829C765.365 826.787 769.48 833.987 770.322 834.829C772.467 836.974 805.481 837.117 806.3 834.985C806.725 833.877 773.514 770.472 737.448 703.54C730.743 691.097 724.35 684.188 717.878 682.39C715.86 681.83 708.561 681.369 701.656 681.366C690.2 681.36 688.655 681.583 683.987 683.909ZM704.94 714.11C707.703 717.247 718.276 736.436 728.497 756.86L738.505 776.86L703.453 777.123C684.175 777.268 668.186 777.17 667.922 776.905C667.141 776.125 669.475 771.154 682.26 746.36C695.901 719.907 700.313 712.36 702.141 712.36C702.833 712.36 704.093 713.147 704.94 714.11ZM516.818 777.893C511.194 783.732 506.732 788.925 506.902 789.433C507.071 789.941 517.02 800.707 529.012 813.358L550.815 836.36H569.68C588.818 836.36 591.713 836.05 591.703 834.003C591.697 832.672 529.853 768.002 528.172 767.569C527.551 767.409 522.442 772.055 516.818 777.893Z" fill="black"/>
</svg>
